<svg xmlns="http://www.w3.org/2000/svg" width="1234" height="940" viewBox="0 0 1234 940"><defs><style type="text/css"/></defs><g transform="translate(-75 473.7232125759606) scale(1)"><g class="relationship"><g transform="translate(129 -4) rotate(0)" stroke-width="5" stroke="#000000"><path d="M 59 0 L 331.8610619582123 0"/><polygon points="-24.8621506177483,0 -27.62461179749811,9.20820393249937 0,0 -27.62461179749811,-9.20820393249937" fill="#000000" transform="translate(356.7232125759606 0) rotate(0)" stroke="none"/></g><g transform="translate(324.43053097910615 -4) rotate(0) translate(0 -13)"><g transform="translate(0 0)"><g transform="translate(-64.28515625 0)" fill="#ffffff" stroke="#000000" stroke-width="0"><rect x="0" y="0" width="128.5703125" height="26" rx="5" ry="5" stroke="none"/><text xml:space="preserve" x="5" y="17.45703125" stroke="none" text-anchor="left" font-family="sans-serif" font-size="16" font-weight="normal" fill="#000000">TOTAL_ISSUED</text></g></g></g></g><g class="relationship"><g transform="translate(960.4464251519212 -4) rotate(180)" stroke-width="5" stroke="#000000"><path d="M 59 0 L 331.8610619582123 0"/><polygon points="-24.8621506177483,0 -27.62461179749811,9.20820393249937 0,0 -27.62461179749811,-9.20820393249937" fill="#000000" transform="translate(356.7232125759606 0) rotate(0)" stroke="none"/></g><g transform="translate(765.015894172815 -3.999999999999976) rotate(360) translate(0 -13)"><g transform="translate(0 0)"><g transform="translate(-75.3984375 0)" fill="#ffffff" stroke="#000000" stroke-width="0"><rect x="0" y="0" width="150.796875" height="26" rx="5" ry="5" stroke="none"/><text xml:space="preserve" x="5" y="17.45703125" stroke="none" text-anchor="left" font-family="sans-serif" font-size="16" font-weight="normal" fill="#000000">TOTAL_RECEIVED</text></g></g></g></g><g class="relationship"><g transform="translate(960.4464251519212 -4) rotate(135)" stroke-width="5" stroke="#000000"><path d="M 59 0 L 331.8610619582122 0"/><polygon points="-24.8621506177483,0 -27.62461179749811,9.20820393249937 0,0 -27.62461179749811,-9.20820393249937" fill="#000000" transform="translate(356.7232125759605 0) rotate(0)" stroke="none"/></g><g transform="translate(822.2561714457077 134.19025370621358) rotate(315) translate(0 -13)"><g transform="translate(0 0)"><g transform="translate(-108.5859375 0)" fill="#ffffff" stroke="#000000" stroke-width="0"><rect x="0" y="0" width="217.171875" height="26" rx="5" ry="5" stroke="none"/><text xml:space="preserve" x="5" y="17.45703125" stroke="none" text-anchor="left" font-family="sans-serif" font-size="16" font-weight="normal" fill="#000000">TOTAL_BATCH_TRANSFER</text></g></g></g></g><g class="relationship"><g transform="translate(960.4464251519212 -4) rotate(90)" stroke-width="5" stroke="#000000"><path d="M 59 0 L 331.8610619582123 0"/><polygon points="-24.8621506177483,0 -27.62461179749811,9.20820393249937 0,0 -27.62461179749811,-9.20820393249937" fill="#000000" transform="translate(356.7232125759606 0) rotate(0)" stroke="none"/></g><g transform="translate(960.4464251519212 191.43053097910615) rotate(270) translate(0 -13)"><g transform="translate(0 0)"><g transform="translate(-112.1640625 0)" fill="#ffffff" stroke="#000000" stroke-width="0"><rect x="0" y="0" width="224.328125" height="26" rx="5" ry="5" stroke="none"/><text xml:space="preserve" x="5" y="17.45703125" stroke="none" text-anchor="left" font-family="sans-serif" font-size="16" font-weight="normal" fill="#000000">TOTAL_MAPPED_DELIVERY</text></g></g></g></g><g class="relationship"><g transform="translate(960.4464251519212 -4) rotate(45)" stroke-width="5" stroke="#000000"><path d="M 59 0 L 331.8610619582123 0"/><polygon points="-24.8621506177483,0 -27.62461179749811,9.20820393249937 0,0 -27.62461179749811,-9.20820393249937" fill="#000000" transform="translate(356.7232125759606 0) rotate(0)" stroke="none"/></g><g transform="translate(1098.6366788581347 134.1902537062136) rotate(45) translate(0 -13)"><g transform="translate(0 0)"><g transform="translate(-107.84765625 0)" fill="#ffffff" stroke="#000000" stroke-width="0"><rect x="0" y="0" width="215.6953125" height="26" rx="5" ry="5" stroke="none"/><text xml:space="preserve" x="5" y="17.45703125" stroke="none" text-anchor="left" font-family="sans-serif" font-size="16" font-weight="normal" fill="#000000">TOTAL_PLANT_TRANSFER</text></g></g></g></g><g class="relationship"><g transform="translate(960.4464251519212 -4) rotate(-90)" stroke-width="5" stroke="#000000"><path d="M 59 0 L 331.8610619582123 0"/><polygon points="-24.8621506177483,0 -27.62461179749811,9.20820393249937 0,0 -27.62461179749811,-9.20820393249937" fill="#000000" transform="translate(356.7232125759606 0) rotate(0)" stroke="none"/></g><g transform="translate(960.4464251519212 -199.43053097910615) rotate(90) translate(0 -13)"><g transform="translate(0 0)"><g transform="translate(-102.38671875 0)" fill="#ffffff" stroke="#000000" stroke-width="0"><rect x="0" y="0" width="204.7734375" height="26" rx="5" ry="5" stroke="none"/><text xml:space="preserve" x="5" y="17.45703125" stroke="none" text-anchor="left" font-family="sans-serif" font-size="16" font-weight="normal" fill="#000000">TOTAL_ISSUE_DELIVERY</text></g></g></g></g><g class="node"><g fill="#ffffff" stroke="#fa28ff" stroke-width="4"><circle cx="960.4464251519212" cy="-419.7232125759606" r="52"/></g><g transform="translate(960.4464251519212 -419.7232125759606)"><g transform="scale(0.43755672729949674) translate(0 -27)"><g transform="translate(0 0)"><g transform="translate(-99.236328125 0)"><g fill="#ffffff" stroke="#000000" stroke-width="4"><rect x="0" y="0" width="198.47265625" height="54" rx="27" ry="27"/><text xml:space="preserve" x="27" y="38.142578125" stroke="none" font-family="sans-serif" font-size="40" font-weight="normal" fill="#000000">Delivery</text></g></g></g></g></g></g><g class="node"><g fill="#ffffff" stroke="#68bc00" stroke-width="4"><circle cx="129" cy="-4" r="52"/></g><g transform="translate(129 -4)"><g transform="scale(0.544295713815769) translate(0 -27)"><g transform="translate(0 0)"><g transform="translate(-78.142578125 0)"><g fill="#ffffff" stroke="#000000" stroke-width="4"><rect x="0" y="0" width="156.28515625" height="54" rx="27" ry="27"/><text xml:space="preserve" x="27" y="38.142578125" stroke="none" font-family="sans-serif" font-size="40" font-weight="normal" fill="#000000">Batch</text></g></g></g></g></g></g><g class="node"><g fill="#ffffff" stroke="#009ce0" stroke-width="4"><circle cx="544.7232125759606" cy="-4" r="52"/></g><g transform="translate(544.7232125759606 -4)"><g transform="scale(0.2945528429280987) translate(0 -27)"><g transform="translate(0 0)"><g transform="translate(-150.369140625 0)"><g fill="#ffffff" stroke="#000000" stroke-width="4"><rect x="0" y="0" width="300.73828125" height="54" rx="27" ry="27"/><text xml:space="preserve" x="27" y="38.142578125" stroke="none" font-family="sans-serif" font-size="40" font-weight="normal" fill="#000000">ProcessOrder</text></g></g></g></g></g></g><g class="node"><g fill="#ffffff" stroke="#68bc00" stroke-width="4"><circle cx="960.4464251519212" cy="-4" r="52"/></g><g transform="translate(960.4464251519212 -4)"><g transform="scale(0.544295713815769) translate(0 -27)"><g transform="translate(0 0)"><g transform="translate(-78.142578125 0)"><g fill="#ffffff" stroke="#000000" stroke-width="4"><rect x="0" y="0" width="156.28515625" height="54" rx="27" ry="27"/><text xml:space="preserve" x="27" y="38.142578125" stroke="none" font-family="sans-serif" font-size="40" font-weight="normal" fill="#000000">Batch</text></g></g></g></g></g></g><g class="node"><g fill="#ffffff" stroke="#68bc00" stroke-width="4"><circle cx="666.485722442803" cy="289.9607027091183" r="52"/></g><g transform="translate(666.485722442803 289.9607027091183)"><g transform="scale(0.544295713815769) translate(0 -27)"><g transform="translate(0 0)"><g transform="translate(-78.142578125 0)"><g fill="#ffffff" stroke="#000000" stroke-width="4"><rect x="0" y="0" width="156.28515625" height="54" rx="27" ry="27"/><text xml:space="preserve" x="27" y="38.142578125" stroke="none" font-family="sans-serif" font-size="40" font-weight="normal" fill="#000000">Batch</text></g></g></g></g></g></g><g class="node"><g fill="#ffffff" stroke="#68bc00" stroke-width="4"><circle cx="960.4464251519212" cy="411.7232125759606" r="52"/></g><g transform="translate(960.4464251519212 411.7232125759606)"><g transform="scale(0.544295713815769) translate(0 -27)"><g transform="translate(0 0)"><g transform="translate(-78.142578125 0)"><g fill="#ffffff" stroke="#000000" stroke-width="4"><rect x="0" y="0" width="156.28515625" height="54" rx="27" ry="27"/><text xml:space="preserve" x="27" y="38.142578125" stroke="none" font-family="sans-serif" font-size="40" font-weight="normal" fill="#000000">Batch</text></g></g></g></g></g></g><g class="node"><g fill="#ffffff" stroke="#68bc00" stroke-width="4"><circle cx="1254.4071278610395" cy="289.9607027091183" r="52"/></g><g transform="translate(1254.4071278610395 289.9607027091183)"><g transform="scale(0.544295713815769) translate(0 -27)"><g transform="translate(0 0)"><g transform="translate(-78.142578125 0)"><g fill="#ffffff" stroke="#000000" stroke-width="4"><rect x="0" y="0" width="156.28515625" height="54" rx="27" ry="27"/><text xml:space="preserve" x="27" y="38.142578125" stroke="none" font-family="sans-serif" font-size="40" font-weight="normal" fill="#000000">Batch</text></g></g></g></g></g></g></g></svg>