<svg xmlns="http://www.w3.org/2000/svg" width="524" height="108" viewBox="0 0 524 108"><defs><style type="text/css"/></defs><g transform="translate(274.72321257596053 89) scale(1)"><g class="relationship"><g transform="translate(-220.72321257596053 -35) rotate(0)" stroke-width="5" stroke="#000000"><path d="M 59 0 L 331.86106195821225 0"/><polygon points="-24.8621506177483,0 -27.62461179749811,9.20820393249937 0,0 -27.62461179749811,-9.20820393249937" fill="#000000" transform="translate(356.72321257596053 0) rotate(0)" stroke="none"/></g><g transform="translate(-25.292681596854408 -35) rotate(0) translate(0 -13)"><g transform="translate(0 0)"><g transform="translate(-65.7578125 0)" fill="#ffffff" stroke="#000000" stroke-width="0"><rect x="0" y="0" width="131.515625" height="26" rx="5" ry="5" stroke="none"/><text xml:space="preserve" x="5" y="17.45703125" stroke="none" text-anchor="left" font-family="sans-serif" font-size="16" font-weight="normal" fill="#000000">BATCH_ISSUED</text></g></g></g></g><g class="node"><g fill="#ffffff" stroke="#68bc00" stroke-width="4"><circle cx="-220.72321257596053" cy="-35" r="52"/></g><g transform="translate(-220.72321257596053 -35)"><g transform="scale(0.544295713815769) translate(0 -27)"><g transform="translate(0 0)"><g transform="translate(-78.142578125 0)"><g fill="#ffffff" stroke="#000000" stroke-width="4"><rect x="0" y="0" width="156.28515625" height="54" rx="27" ry="27"/><text xml:space="preserve" x="27" y="38.142578125" stroke="none" font-family="sans-serif" font-size="40" font-weight="normal" fill="#000000">Batch</text></g></g></g></g></g></g><g class="node"><g fill="#ffffff" stroke="#009ce0" stroke-width="4"><circle cx="195" cy="-35" r="52"/></g><g transform="translate(195 -35)"><g transform="scale(0.2945528429280987) translate(0 -27)"><g transform="translate(0 0)"><g transform="translate(-150.369140625 0)"><g fill="#ffffff" stroke="#000000" stroke-width="4"><rect x="0" y="0" width="300.73828125" height="54" rx="27" ry="27"/><text xml:space="preserve" x="27" y="38.142578125" stroke="none" font-family="sans-serif" font-size="40" font-weight="normal" fill="#000000">ProcessOrder</text></g></g></g></g></g></g></g></svg>