<svg xmlns="http://www.w3.org/2000/svg" width="595" height="108" viewBox="0 0 595 108"><defs><style type="text/css"/></defs><g transform="translate(326.445089169845 54) scale(1)"><g class="relationship"><g transform="translate(-272.445089169845 0) rotate(0)" stroke-width="5" stroke="#000000"><path d="M 59 0 L 402.7113662336808 0"/><polygon points="-24.8621506177483,0 -27.62461179749811,9.20820393249937 0,0 -27.62461179749811,-9.20820393249937" fill="#000000" transform="translate(427.5735168514291 0) rotate(0)" stroke="none"/></g><g transform="translate(-41.58940605300461 0) rotate(0) translate(0 -13)"><g transform="translate(0 0)"><g transform="translate(-79.0859375 0)" fill="#ffffff" stroke="#000000" stroke-width="0"><rect x="0" y="0" width="158.171875" height="26" rx="5" ry="5" stroke="none"/><text xml:space="preserve" x="5" y="17.45703125" stroke="none" text-anchor="left" font-family="sans-serif" font-size="16" font-weight="normal" fill="#000000">BATCH_TRANSFER</text></g></g></g></g><g class="node"><g fill="#ffffff" stroke="#68bc00" stroke-width="4"><circle cx="-272.445089169845" cy="0" r="52"/></g><g transform="translate(-272.445089169845 0)"><g transform="scale(0.544295713815769) translate(0 -27)"><g transform="translate(0 0)"><g transform="translate(-78.142578125 0)"><g fill="#ffffff" stroke="#000000" stroke-width="4"><rect x="0" y="0" width="156.28515625" height="54" rx="27" ry="27"/><text xml:space="preserve" x="27" y="38.142578125" stroke="none" font-family="sans-serif" font-size="40" font-weight="normal" fill="#000000">Batch</text></g></g></g></g></g></g><g class="node"><g fill="#ffffff" stroke="#68bc00" stroke-width="4"><circle cx="214.12842768158404" cy="0" r="52"/></g><g transform="translate(214.12842768158404 0)"><g transform="scale(0.544295713815769) translate(0 -27)"><g transform="translate(0 0)"><g transform="translate(-78.142578125 0)"><g fill="#ffffff" stroke="#000000" stroke-width="4"><rect x="0" y="0" width="156.28515625" height="54" rx="27" ry="27"/><text xml:space="preserve" x="27" y="38.142578125" stroke="none" font-family="sans-serif" font-size="40" font-weight="normal" fill="#000000">Batch</text></g></g></g></g></g></g></g></svg>