<svg xmlns="http://www.w3.org/2000/svg" width="932" height="456" viewBox="0 0 932 456"><defs><style type="text/css"/></defs><g transform="translate(544 836.25) scale(1)"><g class="relationship"><g transform="translate(-490 -782.25) rotate(0)" stroke-width="5" stroke="#000000"><path d="M 59 0 L 328.1378493822517 0"/><polygon points="-24.8621506177483,0 -27.62461179749811,9.20820393249937 0,0 -27.62461179749811,-9.20820393249937" fill="#000000" transform="translate(353 0) rotate(0)" stroke="none"/></g><g transform="translate(-296.43107530887414 -782.25) rotate(0) translate(0 -13)"><g transform="translate(0 0)"><g transform="translate(-94.80078125 0)" fill="#ffffff" stroke="#000000" stroke-width="0"><rect x="0" y="0" width="189.6015625" height="26" rx="5" ry="5" stroke="none"/><text xml:space="preserve" x="5" y="17.45703125" stroke="none" text-anchor="left" font-family="sans-serif" font-size="16" font-weight="normal" fill="#000000">PURCHASE_RECEIVED</text></g></g></g></g><g class="relationship"><g transform="translate(-490 -434.9692813202091) rotate(0)" stroke-width="5" stroke="#000000"><path d="M 59 0 L 328.1378493822517 0"/><polygon points="-24.8621506177483,0 -27.62461179749811,9.20820393249937 0,0 -27.62461179749811,-9.20820393249937" fill="#000000" transform="translate(353 0) rotate(0)" stroke="none"/></g><g transform="translate(-296.43107530887414 -434.9692813202091) rotate(0) translate(0 -13)"><g transform="translate(0 0)"><g transform="translate(-76.87109375 0)" fill="#ffffff" stroke="#000000" stroke-width="0"><rect x="0" y="0" width="153.7421875" height="26" rx="5" ry="5" stroke="none"/><text xml:space="preserve" x="5" y="17.45703125" stroke="none" text-anchor="left" font-family="sans-serif" font-size="16" font-weight="normal" fill="#000000">BATCH_RECEIVED</text></g></g></g></g><g class="relationship"><g transform="translate(-490 -653.6096406601046) rotate(0)" stroke-width="5" stroke="#000000"><path d="M 59 0 L 328.1378493822517 0"/><polygon points="-24.8621506177483,0 -27.62461179749811,9.20820393249937 0,0 -27.62461179749811,-9.20820393249937" fill="#000000" transform="translate(353 0) rotate(0)" stroke="none"/></g><g transform="translate(-296.43107530887414 -653.6096406601046) rotate(0) translate(0 -13)"><g transform="translate(0 0)"><g transform="translate(-85.76953125 0)" fill="#ffffff" stroke="#000000" stroke-width="0"><rect x="0" y="0" width="171.5390625" height="26" rx="5" ry="5" stroke="none"/><text xml:space="preserve" x="5" y="17.45703125" stroke="none" text-anchor="left" font-family="sans-serif" font-size="16" font-weight="normal" fill="#000000">INBOUND_DELIVERY</text></g></g></g></g><g class="relationship"><g transform="translate(-78 -653.6096406601046) rotate(0)" stroke-width="5" stroke="#000000"><path d="M 59 0 L 328.1378493822517 0"/><polygon points="-24.8621506177483,0 -27.62461179749811,9.20820393249937 0,0 -27.62461179749811,-9.20820393249937" fill="#000000" transform="translate(353 0) rotate(0)" stroke="none"/></g><g transform="translate(115.56892469112586 -653.6096406601046) rotate(0) translate(0 -13)"><g transform="translate(0 0)"><g transform="translate(-89.77734375 0)" fill="#ffffff" stroke="#000000" stroke-width="0"><rect x="0" y="0" width="179.5546875" height="26" rx="5" ry="5" stroke="none"/><text xml:space="preserve" x="5" y="17.45703125" stroke="none" text-anchor="left" font-family="sans-serif" font-size="16" font-weight="normal" fill="#000000">DELIVERY_RECEIVED</text></g></g></g></g><g class="node"><g fill="#ffffff" stroke="#68bc00" stroke-width="4"><circle cx="-78" cy="-782.25" r="52"/></g><g transform="translate(-78 -782.25)"><g transform="scale(0.544295713815769) translate(0 -27)"><g transform="translate(0 0)"><g transform="translate(-78.142578125 0)"><g fill="#ffffff" stroke="#000000" stroke-width="4"><rect x="0" y="0" width="156.28515625" height="54" rx="27" ry="27"/><text xml:space="preserve" x="27" y="38.142578125" stroke="none" font-family="sans-serif" font-size="40" font-weight="normal" fill="#000000">Batch</text></g></g></g></g></g></g><g class="node"><g fill="#ffffff" stroke="#fb9e00" stroke-width="4"><circle cx="-490" cy="-434.9692813202091" r="52"/></g><g transform="translate(-490 -434.9692813202091)"><g transform="scale(0.2945528429280987) translate(0 -27)"><g transform="translate(0 0)"><g transform="translate(-150.369140625 0)"><g fill="#ffffff" stroke="#000000" stroke-width="4"><rect x="0" y="0" width="300.73828125" height="54" rx="27" ry="27"/><text xml:space="preserve" x="27" y="38.142578125" stroke="none" font-family="sans-serif" font-size="40" font-weight="normal" fill="#000000">ProcessOrder</text></g></g></g></g></g></g><g class="node"><g fill="#ffffff" stroke="#009ce0" stroke-width="4"><circle cx="-490" cy="-782.25" r="52"/></g><g transform="translate(-490 -782.25)"><g transform="scale(0.2729895365920447) translate(0 -27)"><g transform="translate(0 0)"><g transform="translate(-162.615234375 0)"><g fill="#ffffff" stroke="#000000" stroke-width="4"><rect x="0" y="0" width="325.23046875" height="54" rx="27" ry="27"/><text xml:space="preserve" x="27" y="38.142578125" stroke="none" font-family="sans-serif" font-size="40" font-weight="normal" fill="#000000">PurchaseOrder</text></g></g></g></g></g></g><g class="node"><g fill="#ffffff" stroke="#000000" stroke-width="4"><circle cx="-78" cy="-653.6096406601046" r="52"/></g><g transform="translate(-78 -653.6096406601046)"><g transform="scale(0.3221576924096512) translate(0 -27)"><g transform="translate(0 0)"><g transform="translate(-137.048828125 0)"><g fill="#ffffff" stroke="#000000" stroke-width="4"><rect x="0" y="0" width="274.09765625" height="54" rx="27" ry="27"/><text xml:space="preserve" x="27" y="38.142578125" stroke="none" font-family="sans-serif" font-size="40" font-weight="normal" fill="#000000">DeliveryLine</text></g></g></g></g></g></g><g class="node"><g fill="#ffffff" stroke="#68bc00" stroke-width="4"><circle cx="-78" cy="-434.9692813202091" r="52"/></g><g transform="translate(-78 -434.9692813202091)"><g transform="scale(0.544295713815769) translate(0 -27)"><g transform="translate(0 0)"><g transform="translate(-78.142578125 0)"><g fill="#ffffff" stroke="#000000" stroke-width="4"><rect x="0" y="0" width="156.28515625" height="54" rx="27" ry="27"/><text xml:space="preserve" x="27" y="38.142578125" stroke="none" font-family="sans-serif" font-size="40" font-weight="normal" fill="#000000">Batch</text></g></g></g></g></g></g><g class="node"><g fill="#ffffff" stroke="#009ce0" stroke-width="4"><circle cx="-490" cy="-653.6096406601046" r="52"/></g><g transform="translate(-490 -653.6096406601046)"><g transform="scale(0.2729895365920447) translate(0 -27)"><g transform="translate(0 0)"><g transform="translate(-162.615234375 0)"><g fill="#ffffff" stroke="#000000" stroke-width="4"><rect x="0" y="0" width="325.23046875" height="54" rx="27" ry="27"/><text xml:space="preserve" x="27" y="38.142578125" stroke="none" font-family="sans-serif" font-size="40" font-weight="normal" fill="#000000">PurchaseOrder</text></g></g></g></g></g></g><g class="node"><g fill="#ffffff" stroke="#68bc00" stroke-width="4"><circle cx="334" cy="-653.6096406601046" r="52"/></g><g transform="translate(334 -653.6096406601046)"><g transform="scale(0.544295713815769) translate(0 -27)"><g transform="translate(0 0)"><g transform="translate(-78.142578125 0)"><g fill="#ffffff" stroke="#000000" stroke-width="4"><rect x="0" y="0" width="156.28515625" height="54" rx="27" ry="27"/><text xml:space="preserve" x="27" y="38.142578125" stroke="none" font-family="sans-serif" font-size="40" font-weight="normal" fill="#000000">Batch</text></g></g></g></g></g></g></g></svg>